<?xml version="1.0" standalone="no"?>
<!DOCTYPE svg PUBLIC "-//W3C//DTD SVG 20010904//EN"
 "http://www.w3.org/TR/2001/REC-SVG-20010904/DTD/svg10.dtd">
<svg version="1.0" xmlns="http://www.w3.org/2000/svg"
 width="500.000000pt" height="500.000000pt" viewBox="0 0 500.000000 500.000000"
 preserveAspectRatio="xMidYMid meet">
<metadata>
Created by potrace 1.11, written by Peter Selinger 2001-2013
</metadata>
<g transform="translate(0.000000,500.000000) scale(0.100000,-0.100000)"
fill="#000000" stroke="none">
<path d="M2378 3895 c-2 -1 -25 -5 -53 -8 -246 -28 -505 -138 -702 -298 -132
-108 -270 -270 -338 -395 -14 -27 -30 -56 -35 -64 -43 -76 -110 -275 -124
-375 -4 -22 -10 -65 -15 -95 -9 -56 -7 -314 3 -360 3 -14 11 -52 17 -85 31
-174 129 -391 247 -547 75 -100 189 -217 262 -270 25 -18 47 -35 50 -38 14
-17 154 -97 224 -130 193 -89 359 -124 586 -125 180 0 287 17 449 71 355 119
660 392 820 734 36 78 88 232 97 286 3 21 8 42 10 46 17 27 25 320 13 428 -19
157 -77 344 -150 479 -166 306 -380 498 -724 652 -51 23 -193 63 -255 73 -19
3 -46 8 -60 12 -26 6 -316 15 -322 9z"/>
</g>
</svg>
