<?xml version="1.0" standalone="no"?>
<!DOCTYPE svg PUBLIC "-//W3C//DTD SVG 20010904//EN"
 "http://www.w3.org/TR/2001/REC-SVG-20010904/DTD/svg10.dtd">
<svg version="1.0" xmlns="http://www.w3.org/2000/svg"
 width="500.000000pt" height="500.000000pt" viewBox="0 0 500.000000 500.000000"
 preserveAspectRatio="xMidYMid meet">
<metadata>
Created by potrace 1.11, written by Peter Selinger 2001-2013
</metadata>
<g transform="translate(0.000000,500.000000) scale(0.100000,-0.100000)"
fill="#000000" stroke="none">
<path d="M2370 3718 c-216 -24 -422 -104 -592 -231 -468 -346 -630 -953 -397
-1484 34 -76 134 -243 158 -263 3 -3 28 -30 55 -60 155 -175 364 -303 601
-366 118 -32 354 -47 460 -30 22 4 56 9 75 12 61 10 199 53 266 84 211 96 394
250 523 443 247 368 272 845 68 1242 -155 299 -451 536 -773 619 -145 37 -306
50 -444 34z"/>
</g>
</svg>
