<?xml version="1.0" encoding="UTF-8"?>
<svg width="333px" height="364px" viewBox="0 0 333 364" version="1.1" xmlns="http://www.w3.org/2000/svg" xmlns:xlink="http://www.w3.org/1999/xlink">
    <!-- Generator: Sketch 48.2 (47327) - http://www.bohemiancoding.com/sketch -->
    <title>Group 2</title>
    <desc>Created with Sketch.</desc>
    <defs>
        <polygon id="path-1" points="0.000386577181 0.641695385 95.7190872 0.641695385 95.7190872 168 0.000386577181 168"></polygon>
        <polygon id="path-3" points="0 168 96 168 96 1 0 1"></polygon>
        <polygon id="path-5" points="0 0.628222128 95.8351624 0.628222128 95.8351624 97.6643137 0 97.6643137"></polygon>
    </defs>
    <g id="Desktop" stroke="none" stroke-width="1" fill="none" fill-rule="evenodd" transform="translate(-232.000000, -194.000000)">
        <g id="Group-3" transform="translate(232.000000, 194.000000)">
            <g id="Group-2">
                <g id="Page-1" transform="translate(229.500000, 15.500000) rotate(90.000000) translate(-229.500000, -15.500000) translate(214.000000, -87.000000)">
                    <path d="M1,13.4991857 C1.00152018,20.9433621 7.05641574,26.9983714 14.5007601,27 C18.220652,27 21.595462,25.4886905 24.0414391,23.042584 C26.4858961,20.598106 27.9984798,17.2220882 28,13.5008143 C27.9954394,6.05826648 21.9405439,0.00488569878 14.4977197,0 C7.05641574,0 1,6.05826648 1,13.4991857 Z" id="Fill-1" fill="#1A2940"></path>
                    <polygon id="Fill-3" fill="#1A2940" points="1 28.0034044 1 178 28 177.996596 28 28"></polygon>
                    <path d="M16.2679083,184.196786 C15.8151862,184.693443 15.1905444,185 14.5014327,185 C13.1203438,185 12.0028653,183.772059 12.0028653,182.254688 L12,30.7453121 C12,29.2279406 13.1174785,28 14.4985673,28 C15.8796562,28 16.9971347,29.2279406 16.9971347,30.7453121 L17,182.254688 C17,183.013374 16.7206304,183.70013 16.2679083,184.196786" id="Fill-4" fill="#FFFFFF"></path>
                    <polygon id="Fill-6" fill="#7E57C2" points="1.0015201 11.0016539 1.0015201 18.9488068 1 18.9488068 1.0015201 21.499173 1 24.0478853 1.0015201 24.0478853 1.0015201 31.9983461 28 32 28 18.9504607 28 11"></polygon>
                    <polygon id="Fill-7" fill="#FFFFFF" points="0 24 31 24 31 19 0 19"></polygon>
                    <polygon id="Fill-8" fill="#00BFA5" points="1 178 14.5016593 205 28 178"></polygon>
                </g>
                <g id="Page-1" transform="translate(126.000000, 55.000000)">
                    <path d="M29.9976583,0 C13.4579658,0 0,14.9108573 0,33.2365767 L0,286 L60,286 L60,33.2365767 C60,14.9108573 46.5373507,0 29.9976583,0" id="Fill-1" fill="#1C2942"></path>
                    <polygon id="Fill-3" fill="#03A9F4" points="23 253 207 253 207 0 23 0"></polygon>
                    <g id="Group-8" transform="translate(5.000000, 247.000000)">
                        <path d="M18.8664164,0 C10.2834319,0 1.42970577,12.2177297 0,33 L18.8664164,33 L198,33 L198,0 L18.8664164,0 Z" id="Fill-4" fill="#FFFFFF"></path>
                        <path d="M18.8664164,0 C10.2834319,0 1.42970577,12.2177297 0,33 L18.8664164,33 L198,33 L198,0 L18.8664164,0 Z" id="Stroke-6" stroke="#1C2942" stroke-width="8" stroke-linecap="round"></path>
                    </g>
                    <polygon id="Fill-9" fill="#1C2942" points="49 246 49 309 68.001166 290.076794 87 309 87 246"></polygon>
                </g>
                <g id="Page-1" transform="translate(0.000000, 3.000000)">
                    <g id="Group-3">
                        <mask id="mask-2" fill="white">
                            <use xlink:href="#path-1"></use>
                        </mask>
                        <g id="Clip-2"></g>
                        <path d="M7.7319302,168.000065 C3.47893691,168.000065 0.000386577181,164.510834 0.000386577181,160.246218 L0.000386577181,8.39554154 C0.000386577181,4.13157231 3.47893691,0.641695385 7.7319302,0.641695385 L87.9879302,0.641695385 C92.2402792,0.641695385 95.7194738,4.13157231 95.7194738,8.39554154 L95.7194738,160.246218 C95.7194738,164.510834 92.2402792,168.000065 87.9879302,168.000065 L7.7319302,168.000065 Z" id="Fill-1" fill="#1C2942" mask="url(#mask-2)"></path>
                    </g>
                    <mask id="mask-4" fill="white">
                        <use xlink:href="#path-3"></use>
                    </mask>
                    <g id="Clip-5"></g>
                    <polygon id="Fill-4" fill="#7E57C2" mask="url(#mask-4)" points="10 143 86 143 86 22 10 22"></polygon>
                    <polygon id="Stroke-6" stroke="#FFFFFF" stroke-width="3" stroke-linecap="round" stroke-linejoin="round" mask="url(#mask-4)" points="41 11 48.5003279 11 56 11 48.5003279 11"></polygon>
                </g>
                <g id="Page-1" transform="translate(0.000000, 195.000000)">
                    <polygon id="Fill-1" fill="#1C2A43" points="69.2999749 81.9525983 27.6969651 81.9525983 26.0690745 78 18 82.9693339 18.0061199 143 48.50153 121.299339 79 143 79 84.273475 78.9938801 82.9693339 70.9278656 78"></polygon>
                    <g id="Group-7">
                        <g id="Group-4">
                            <mask id="mask-6" fill="white">
                                <use xlink:href="#path-5"></use>
                            </mask>
                            <g id="Clip-3"></g>
                            <path d="M-0.00121411765,49.1462679 C-0.00121411765,75.8992665 21.4947388,97.6643137 47.9169741,97.6643137 C74.3392094,97.6643137 95.8351624,75.8992665 95.8351624,49.1462679 C95.8351624,22.3932693 74.3392094,0.628222128 47.9169741,0.628222128 C21.4947388,0.628222128 -0.00121411765,22.3932693 -0.00121411765,49.1462679 Z" id="Fill-2" fill="#00BFA5" mask="url(#mask-6)"></path>
                        </g>
                        <path d="M47.9160635,81.0135302 C30.5329341,81.0135302 16.4430988,66.7473131 16.4430988,49.1465753 C16.4430988,31.5427641 30.5329341,17.2765471 47.9160635,17.2765471 C65.2991929,17.2765471 79.3920635,31.5427641 79.3920635,49.1465753 C79.3920635,66.7473131 65.2991929,81.0135302 47.9160635,81.0135302 Z" id="Fill-5" fill="#1C2942"></path>
                    </g>
                </g>
            </g>
        </g>
    </g>
</svg>