<?xml version="1.0" encoding="UTF-8"?>
<svg width="228px" height="123px" viewBox="0 0 228 123" version="1.1" xmlns="http://www.w3.org/2000/svg" xmlns:xlink="http://www.w3.org/1999/xlink">
    <!-- Generator: Sketch 48.2 (47327) - http://www.bohemiancoding.com/sketch -->
    <title>Group 5</title>
    <desc>Created with Sketch.</desc>
    <defs>
        <polygon id="path-1" points="0.00012885906 0.213898462 31.9063624 0.213898462 31.9063624 56 0.00012885906 56"></polygon>
        <polygon id="path-3" points="0 56 32 56 32 0 0 0"></polygon>
        <polygon id="path-5" points="0 0.240159508 35.9381859 0.240159508 35.9381859 37.3355419 0 37.3355419"></polygon>
    </defs>
    <g id="Mobile" stroke="none" stroke-width="1" fill="none" fill-rule="evenodd" transform="translate(-34.000000, -380.000000)">
        <g id="Group-6" transform="translate(30.000000, 108.000000)">
            <g id="Group-5" transform="translate(4.000000, 272.000000)">
                <g id="Page-1-Copy-2" transform="translate(37.000000, 0.000000)">
                    <path d="M11.9990633,0 C5.38318632,0 0,5.94348858 0,13.248146 L0,114 L24,114 L24,13.248146 C24,5.94348858 18.6149403,0 11.9990633,0" id="Fill-1" fill="#1C2942"></path>
                    <polygon id="Fill-3" fill="#03A9F4" points="9 101 83 101 83 0 9 0"></polygon>
                    <g id="Group-8" transform="translate(2.000000, 98.000000)">
                        <path d="M7.61116552,0 C4.14858342,0 0.576777649,4.78845105 0,12.9335718 L7.61116552,12.9335718 L79.8779558,12.9335718 L79.8779558,0 L7.61116552,0 Z" id="Fill-4" fill="#FFFFFF"></path>
                        <path d="M7.61116552,0 C4.14858342,0 0.576777649,4.78845105 0,12.9335718 L7.61116552,12.9335718 L79.8779558,12.9335718 L79.8779558,0 L7.61116552,0 Z" id="Stroke-6" stroke="#1C2942" stroke-width="3" stroke-linecap="round"></path>
                    </g>
                    <polygon id="Fill-9" fill="#1C2942" points="20 98 20 123 28.0004909 115.490791 36 123 36 98"></polygon>
                </g>
                <g id="Page-1-Copy-3" transform="translate(140.000000, 0.000000)">
                    <g id="Group-3">
                        <mask id="mask-2" fill="white">
                            <use xlink:href="#path-1"></use>
                        </mask>
                        <g id="Clip-2"></g>
                        <path d="M2.57731007,56.0000215 C1.15964564,56.0000215 0.00012885906,54.8369446 0.00012885906,53.4154062 L0.00012885906,2.79851385 C0.00012885906,1.37719077 1.15964564,0.213898462 2.57731007,0.213898462 L29.3293101,0.213898462 C30.7467597,0.213898462 31.9064913,1.37719077 31.9064913,2.79851385 L31.9064913,53.4154062 C31.9064913,54.8369446 30.7467597,56.0000215 29.3293101,56.0000215 L2.57731007,56.0000215 Z" id="Fill-1" fill="#1C2942" mask="url(#mask-2)"></path>
                    </g>
                    <mask id="mask-4" fill="white">
                        <use xlink:href="#path-3"></use>
                    </mask>
                    <g id="Clip-5"></g>
                    <polygon id="Fill-4" fill="#7E57C2" mask="url(#mask-4)" points="4 48 28 48 28 8 4 8"></polygon>
                    <polygon id="Stroke-6" stroke="#FFFFFF" stroke-width="2" stroke-linecap="round" stroke-linejoin="round" mask="url(#mask-4)" points="14 4 16.5001093 4 19 4 16.5001093 4"></polygon>
                </g>
                <g id="Page-1-Copy-4" transform="translate(192.000000, 0.000000)">
                    <polygon id="Fill-1" fill="#1C2A43" points="26.3426135 30.5202301 10.6562328 30.5202301 10.0424379 29 7 30.9112823 7.0023075 54 18.5005769 45.653592 30 54 30 31.412875 29.9976925 30.9112823 26.9564083 29"></polygon>
                    <g id="Group-7">
                        <g id="Group-4">
                            <mask id="mask-6" fill="white">
                                <use xlink:href="#path-5"></use>
                            </mask>
                            <g id="Clip-3"></g>
                            <path d="M-0.000455294118,18.7878507 C-0.000455294118,29.0151042 8.06052706,37.3355419 17.9688653,37.3355419 C27.8772035,37.3355419 35.9381859,29.0151042 35.9381859,18.7878507 C35.9381859,8.56059714 27.8772035,0.240159508 17.9688653,0.240159508 C8.06052706,0.240159508 -0.000455294118,8.56059714 -0.000455294118,18.7878507 Z" id="Fill-2" fill="#00BFA5" mask="url(#mask-6)"></path>
                        </g>
                        <path d="M17.9685238,30.9702073 C11.4498503,30.9702073 6.16616206,25.5164554 6.16616206,18.7879682 C6.16616206,12.0583061 11.4498503,6.60455413 17.9685238,6.60455413 C24.4871974,6.60455413 29.7720238,12.0583061 29.7720238,18.7879682 C29.7720238,25.5164554 24.4871974,30.9702073 17.9685238,30.9702073 Z" id="Fill-5" fill="#1C2942"></path>
                    </g>
                </g>
                <g id="Page-1-Copy">
                    <path d="M0,6.99957778 C0.000900850177,10.8595211 3.58898711,13.9991556 8.00045043,14 C10.2048308,14 12.2047182,13.216358 13.6541861,11.9480065 C15.1027532,10.6804994 15.9990991,8.92997165 16,7.00042222 C15.9972974,3.14132336 12.4092112,0.00253332529 7.99864872,0 C3.58898711,0 0,3.14132336 0,6.99957778 Z" id="Fill-1" fill="#1A2940"></path>
                    <polygon id="Fill-3" fill="#1A2940" points="0 16.0019292 0 101 16 100.998071 16 16"></polygon>
                    <path d="M7.70716332,102.554907 C7.5260745,102.830124 7.27621777,103 7.00057307,103 C6.44813754,103 6.00114613,102.319549 6.00114613,101.478712 L6,17.5212876 C6,16.6804512 6.4469914,16 6.99942693,16 C7.55186246,16 7.99885387,16.6804512 7.99885387,17.5212876 L8,101.478712 C8,101.899131 7.88825215,102.27969 7.70716332,102.554907" id="Fill-4" fill="#FFFFFF"></path>
                    <polygon id="Fill-6" fill="#7E57C2" points="0.00090079946 6.00078759 0.00090079946 9.7851461 0 9.7851461 0.00090079946 10.9996062 0 12.2132787 0.00090079946 12.2132787 0.00090079946 15.9992124 16 16 16 9.78593369 16 6"></polygon>
                    <polygon id="Fill-7" fill="#FFFFFF" points="0 13 17 13 17 10 0 10"></polygon>
                    <polygon id="Fill-8" fill="#00BFA5" points="0 101 8.00098328 115 16 101"></polygon>
                </g>
            </g>
        </g>
    </g>
</svg>